<svg xmlns="http://www.w3.org/2000/svg" viewBox="0 0 100 100" class="icon-codeship">
  <circle fill="#FFFFFF" cx="50" cy="50" r="50"></circle>
  <path d="M40.1113095,7.89007937 C39.3621032,8.26448413 38.8888889,9.03015873 38.8888889,9.86785714 L38.8888889,16.1948413 C46.2434524,14.9503968 53.756746,14.9503968 61.1111111,16.1948413 L61.1111111,9.86785714 C61.1111111,9.03015873 60.6380952,8.26448413 59.8888889,7.89007937 C56.7763889,6.33373016 53.3882937,5.55555556 50,5.55555556 C46.6119048,5.55555556 43.2238095,6.33373016 40.1113095,7.89007937 Z" fill="#28AED4"/>
  <path d="M89.968254,69.4615079 C82.7521825,84.2535714 67.5662698,94.4444444 50,94.4444444 C31.2585317,94.4444444 15.2265873,82.8440476 8.69218254,66.4319444 C12.0240079,63.4801587 15.9384921,61.1111111 22.2222222,61.1111111 C30.5555556,61.1111111 34.7222222,65.2777778 38.8888889,69.4444444 C43.0555556,73.6111111 47.2222222,77.7777778 55.5555556,77.7777778 C62.5,77.7777778 67.3611111,75.6944444 72.2222222,73.6111111 C77.0833333,71.5277778 81.9444444,69.4444444 88.8888889,69.4444444 C89.255754,69.4444444 89.6154762,69.4501984 89.968254,69.4615079 Z" fill="#28AED4"/>
  <path d="M10.344246,70.0886905 C12.2279762,69.6867063 14.2984127,69.4444444 16.6666667,69.4444444 C23.6111111,69.4444444 28.4722222,71.5277778 33.3333333,73.6111111 C33.9440476,73.8728175 34.5547619,74.1345238 35.1696429,74.3920635 C32.5142857,65.5047619 28.4363095,54.2095238 22.9365079,45.5428571 C22.5416667,44.9204365 22.6825397,44.0962302 23.2869048,43.6742063 C34.3656746,35.9390873 50,33.3333333 50,33.3333333 C50,33.3333333 65.6345238,35.9390873 76.7132937,43.6742063 C77.3176587,44.0962302 77.4585317,44.9204365 77.0636905,45.5428571 C72.4625,52.7934524 68.8565476,61.8837302 66.2460317,69.8646825 L66.6666667,69.4444444 C70.8333333,65.2777778 75,61.1111111 83.3333333,61.1111111 C87.0835317,61.1111111 89.9896825,61.9549603 92.4319444,63.2626984 C86.7904762,81.330754 69.9267857,94.4444444 50,94.4444444 C32.6833333,94.4444444 17.6797619,84.540873 10.344246,70.0886905 Z M50,38.8888889 C44.4444444,47.2222222 50,72.2222222 50,72.2222222 C50,72.2222222 55.5555556,47.2222222 50,38.8888889 Z" fill="#004466"/>
  <path d="M28.5700397,24.7029762 C28.0936508,24.8815476 27.7777778,25.3371032 27.7777778,25.8458333 L27.7777778,34.6861111 C31.8015873,32.7494048 35.8119048,31.3180556 39.1738095,30.2902778 C41.9829365,29.4315476 44.4253968,28.8287698 46.1759921,28.4386905 C47.4910714,28.1458333 48.4236111,27.9708333 48.843254,27.8958333 L50,27.7011905 L50.9904762,27.8664683 L51.1569444,27.8958333 C51.296627,27.9208333 51.4936508,27.9569444 51.7424603,28.0047619 C52.2402778,28.1003968 52.947619,28.2434524 53.8242063,28.4386905 C55.5748016,28.8287698 58.0172619,29.4315476 60.8263889,30.2902778 C64.1882937,31.3180556 68.1986111,32.7494048 72.2222222,34.6861111 L72.2222222,25.8458333 C72.2222222,25.3371032 71.9065476,24.8815476 71.4301587,24.7029762 C57.6132937,19.521627 42.3869048,19.521627 28.5700397,24.7029762 Z" fill="#004466"/>
</svg>
