<svg class="icon-gear icon-outline" xmlns="http://www.w3.org/2000/svg" viewBox="0 0 10 10">
  <path  vector-effect="non-scaling-stroke" d="M8,5 C8,6.65685425 6.65685425,8 5,8 C3.34314575,8 2,6.65685425 2,5 C2,3.34314575 3.34314575,2 5,2 C5.79564947,2 6.55871121,2.31607052 7.12132034,2.87867966 C7.68392948,3.44128879 8,4.20435053 8,5 Z M5,1 L5,2 L5,1 Z M5,8 L5,9 L5,8 Z M1,5 L2,5 L1,5 Z M8,5 L9,5 L8,5 Z M2.17,2.17 L2.88,2.88 L2.17,2.17 Z M7.12,7.12 L7.83,7.83 L7.12,7.12 Z M2.17,7.83 L2.88,7.12 L2.17,7.83 Z M7.12,2.88 L7.83,2.17 L7.12,2.88 Z"/>
</svg>
