<svg viewBox="0 0 16 16" class="icon-github">
<path d="M12.196,3.421c0,0-0.67-0.22-2.195,0.84c-0.638-0.182-1.322-0.272-2-0.275c-0.679,0.003-1.363,0.094-2,0.275
	c-1.526-1.06-2.197-0.84-2.197-0.84C3.37,4.55,3.644,5.382,3.726,5.59C3.215,6.162,2.904,6.893,2.904,7.788
	c0,3.139,1.865,3.842,3.639,4.048c-0.229,0.205-0.435,0.566-0.507,1.095c-0.455,0.21-1.612,0.571-2.325-0.681
	c0,0-0.423-0.786-1.224-0.844c0,0-0.78-0.01-0.055,0.498c0,0,0.524,0.252,0.887,1.198c0,0,0.469,1.593,2.691,1.098
	c0.004,0.684,0.011,1.199,0.011,1.393c0,0.217-0.146,0.47-0.545,0.395C5.466,15.993,5.458,15.996,5.449,16h5.286
	c-0.069-0.003-0.134-0.013-0.203-0.013c-0.406,0.08-0.55-0.174-0.55-0.394c0-0.268,0.01-1.152,0.01-2.247
	c0-0.764-0.256-1.264-0.543-1.517c1.779-0.203,3.647-0.895,3.647-4.042c0-0.894-0.309-1.625-0.821-2.198
	C12.357,5.382,12.632,4.55,12.196,3.421z"/>
</svg>
