<svg viewBox="0 0 24 24" class="icon-google">
	<path d="M17.9,7.9v1.8h-0.9V7.9h-1.8V7.1h1.8V5.3h0.9v1.8h1.8v0.9H17.9z M14.1,16.4
		c0,3.8-4.9,3.6-4.9,3.6s-4.2,0.1-4.2-2.9s4.8-2.9,5.1-2.9c-0.1-0.7-0.5-0.6-0.5-0.9v-0.8c0,0-3.6,0.4-3.6-3S9.9,6,9.9,6h4.1
		c0,0.6-1.9,0.4-1.9,0.7c1.1,0.5,1.2,1.2,1.2,2.5c0,2.1-2.1,2.4-2.1,3.3C11.3,13.5,14.1,14.2,14.1,16.4z M11.3,8.7
		c-0.4-1.3-1.5-2.2-2.5-2C7.8,7,7.3,8.3,7.7,9.7c0.4,1.3,1.5,2.2,2.5,2C11.2,11.4,11.7,10.1,11.3,8.7z M9.5,14.8
		c-1.7,0.1-3,1.2-2.9,2.3c0.1,1.2,1.5,2,3.2,1.9c1.7-0.1,3-1.2,2.9-2.3C12.6,15.5,11.2,14.7,9.5,14.8z"/>
</svg>
