<svg viewBox="0 0 24 24" class="icon-linkedin">
	<path d="M17,18H7c-0.6,0-1-0.4-1-1V7c0-0.6,0.4-1,1-1h10c0.6,0,1,0.4,1,1v10C18,17.6,17.6,18,17,18z
		M8,16h1.7v-5.4H8V16z M8.9,8c-0.6,0-1,0.4-1,0.9c0,0.5,0.4,0.9,0.9,0.9h0c0.6,0,1-0.4,1-0.9C9.9,8.4,9.5,8,8.9,8z M15.9,12.9
		c0-1.7-0.8-2.4-2-2.4c-0.9,0-1.3,0.5-1.5,0.9v-0.8h-1.7c0,0.5,0,5.4,0,5.4h1.7v-3c0-0.2,0-0.3,0.1-0.4c0.1-0.3,0.4-0.7,0.9-0.7
		c0.6,0,0.9,0.5,0.9,1.2V16h1.7V12.9z M12.4,11.4C12.4,11.4,12.4,11.4,12.4,11.4L12.4,11.4L12.4,11.4z"/>
</svg>
