<svg xmlns="http://www.w3.org/2000/svg" viewBox="0 0 22 22">
  <path d="M13,11a2,2,0,0,0-1-1.71V6a1,1,0,0,0-2,0v3.3A2,2,0,0,0,9,11L6.16,12.63a1,1,0,0,0,.5,1.87,1,1,0,0,0,.5-.14L10,12.72a1.93,1.93,0,0,0,2,0l2.84,1.64A1,1,0,0,0,16.21,14a1,1,0,0,0-.37-1.37Zm-2,1a1,1,0,1,1,1-1A1,1,0,0,1,11,12Zm10,0a1,1,0,0,0,0-2H19.94a9.49,9.49,0,0,0-.3-1.5l1-.4a1,1,0,0,0,.54-1.31,1,1,0,0,0-1.3-.54l-1,.41A10,10,0,0,0,18,5.39l.75-.75a1,1,0,1,0-1.42-1.42L16.61,4a9.67,9.67,0,0,0-1.26-.86l.4-1a1,1,0,0,0-.54-1.3,1,1,0,0,0-1.31.54l-.4,1a9.49,9.49,0,0,0-1.5-.3V1a1,1,0,0,0-2,0V2.06a9.49,9.49,0,0,0-1.5.3l-.4-1a1,1,0,0,0-1.85.76l.41,1A9.13,9.13,0,0,0,5.39,4l-.75-.76A1,1,0,0,0,3.22,4.64L4,5.39a9.13,9.13,0,0,0-.86,1.27l-1-.41a1,1,0,0,0-1.3.54A1,1,0,0,0,1.38,8.1l1,.4a9.49,9.49,0,0,0-.3,1.5H1a1,1,0,0,0,0,2H2.06a9.49,9.49,0,0,0,.3,1.5l-1,.4a1,1,0,0,0,.38,1.93,1,1,0,0,0,.38-.08l1-.4A9.67,9.67,0,0,0,4,16.61l-.76.75a1,1,0,0,0,0,1.42,1,1,0,0,0,.71.29,1,1,0,0,0,.71-.29L5.39,18a10,10,0,0,0,1.27.85l-.41,1a1,1,0,0,0,.54,1.3,1.08,1.08,0,0,0,.38.08,1,1,0,0,0,.93-.62l.4-1a9.49,9.49,0,0,0,1.5.3V21a1,1,0,0,0,2,0V19.94a9.49,9.49,0,0,0,1.5-.3l.4,1a1,1,0,0,0,.93.62,1,1,0,0,0,.38-.08,1,1,0,0,0,.54-1.3l-.4-1A10.69,10.69,0,0,0,16.61,18l.75.75a1,1,0,0,0,.71.29,1,1,0,0,0,.71-.29,1,1,0,0,0,0-1.42L18,16.61a10.69,10.69,0,0,0,.85-1.26l1,.4a1,1,0,0,0,.38.08,1,1,0,0,0,.38-1.93l-1-.4a9.49,9.49,0,0,0,.3-1.5ZM11,18a7,7,0,1,1,7-7A7,7,0,0,1,11,18Z" />
</svg>
