<svg viewBox="0 0 16 16" class="icon-website">
<path d="M7.901,7.151c0.001-0.001,0.001-0.002,0.002-0.003c-0.002-0.01-0.004-0.019-0.005-0.025C7.899,7.133,7.9,7.141,7.901,7.151z
	 M8,3C5.239,3,3,5.239,3,8c0,2.761,2.239,5,5,5c2.761,0,5-2.239,5-5C13,5.239,10.761,3,8,3z M11.194,4.954
	c-0.172,0.005-0.292,0.006-0.431,0.101c-0.056,0.039-0.094,0.089-0.165,0.109c-0.063,0.017-0.132,0.002-0.195,0.023
	c-0.227,0.077-0.191,0.563-0.491,0.49c-0.141-0.035-0.24-0.201-0.311-0.309C9.54,5.273,9.427,5.194,9.504,5.075
	C9.469,5.083,9.432,5.073,9.397,5.08c0.048-0.105,0.209-0.096,0.235-0.15C9.699,4.794,9.449,4.78,9.378,4.762
	c0.085-0.091,0.129,0.031,0.213,0.01C9.672,4.752,9.548,4.645,9.5,4.633C9.482,4.629,9.197,4.712,9.362,4.564
	C9.158,4.435,8.955,4.305,8.751,4.175C8.716,4.319,9.022,4.402,9.122,4.452c-0.015,0.06-0.108,0.147-0.179,0.121
	C8.876,4.55,8.903,4.438,8.802,4.45C8.73,4.617,8.954,4.569,8.975,4.671C8.999,4.788,8.89,4.738,8.848,4.736
	c-0.01-0.001-0.088-0.081-0.092-0.02C8.751,4.789,8.88,4.761,8.89,4.834C8.739,4.84,8.662,4.785,8.54,4.704
	C8.396,4.608,8.323,4.617,8.148,4.617C8.2,4.596,8.272,4.58,8.317,4.545c0.024-0.019,0.12-0.113,0.127-0.133
	c0.027-0.09-0.001-0.083-0.087-0.142C8.28,4.218,8.187,4.124,8.094,4.105C7.758,4.038,7.991,4.408,7.736,4.46
	C7.677,4.458,7.566,4.443,7.528,4.474c-0.027,0.022-0.029,0.11-0.059,0.142C7.416,4.673,7.336,4.684,7.272,4.726
	C7.21,4.766,7.073,4.868,7.036,4.938C6.902,5.196,7.34,5.275,7.506,5.35C7.581,5.384,7.8,5.431,7.841,5.488
	c0.055,0.076-0.047,0.148,0.067,0.201C7.945,5.706,8.02,5.71,8.052,5.674c0.051-0.058-0.021-0.071-0.033-0.137
	C7.996,5.409,8.034,5.46,8.099,5.412C8.23,5.316,8.201,5.31,8.153,5.155C8.132,5.083,8.049,4.883,8.122,4.83
	c0.095-0.069,0.297,0.038,0.37,0.047C8.576,4.887,8.624,5.004,8.67,5.052C8.701,5.084,8.756,5.152,8.81,5.144
	c0.085-0.011,0.049-0.086,0.099-0.12c0.133-0.092,0.167,0.033,0.22,0.157c0.049,0.117,0.097,0.16,0.185,0.235
	c0.041,0.035,0.22,0.16,0.203,0.237C9.505,5.706,9.3,5.784,9.245,5.802C9.044,5.865,8.668,5.698,8.628,6.016
	c0.077-0.029,0.299-0.21,0.365-0.124c0.03,0.039-0.024,0.095-0.011,0.134c0.038,0.115,0.126,0.076,0.219,0.057
	c0.098-0.05,0.101-0.05,0.155-0.148C9.375,5.9,9.403,5.815,9.43,5.79C9.523,5.705,9.538,5.764,9.595,5.83
	C9.61,5.847,9.752,6.052,9.702,6.042C9.536,6.008,9.377,6.013,9.24,6.104C9.16,6.156,9.086,6.226,8.991,6.261
	C8.968,6.269,8.8,6.285,8.82,6.256c0.029-0.042,0.129-0.069,0.168-0.115c-0.109-0.045-0.2,0.054-0.285,0.112
	C8.612,6.296,8.591,6.377,8.514,6.447C8.48,6.478,8.416,6.483,8.383,6.523C8.351,6.562,8.347,6.624,8.316,6.661
	C8.295,6.687,8.24,6.671,8.218,6.71C8.189,6.761,8.244,6.809,8.232,6.846C8.21,6.912,8.083,6.97,8.034,7.018
	c-0.045,0.043-0.097,0.078-0.131,0.13C7.92,7.232,7.976,7.433,7.96,7.479C7.909,7.631,7.81,7.397,7.77,7.336
	C7.632,7.128,7.355,7.267,7.167,7.285C6.925,7.307,6.688,7.62,6.837,7.875c0.072,0.122,0.192,0.169,0.33,0.141
	c0.123-0.025,0.16-0.197,0.275-0.2c0.212-0.006,0.005,0.208-0.014,0.287C7.412,8.175,7.455,8.181,7.53,8.199
	c0.055,0.013,0.133-0.023,0.181,0.008c0.03,0.02,0.029,0.129,0.07,0.095C7.7,8.37,7.719,8.531,7.803,8.589
	c0.093,0.064,0.202,0.005,0.299,0.029c0.184,0.047,0.096-0.014,0.257-0.111c0.109-0.065,0.127,0.013,0.201,0.013
	C8.611,8.52,8.643,8.447,8.728,8.468c0.069,0.017,0.096,0.071,0.179,0.083C8.94,8.555,8.975,8.538,9.007,8.541
	C9.16,8.559,9.277,8.656,9.397,8.744c0.099,0.072,0.165,0.057,0.28,0.091c0.084,0.024,0.24,0.146,0.232,0.253
	C9.907,9.107,9.833,9.204,9.821,9.247c0.022,0.015,0.172-0.019,0.216-0.022C10.023,9.242,9.92,9.314,9.92,9.276
	c0,0.019,0.073,0.059,0.09,0.072c0.053-0.173,0.141-0.061,0.247-0.019c0.09,0.037,0.2,0.039,0.296,0.061
	c0.081,0.019,0.261,0.074,0.321,0.141c0.073,0.08,0.022,0.21-0.031,0.289c-0.07,0.104-0.175,0.144-0.219,0.267
	c-0.035,0.097-0.008,0.195-0.029,0.303c-0.027,0.146-0.048,0.095-0.142,0.184c-0.079,0.075-0.001,0.061-0.109,0.109
	c-0.108,0.048-0.203,0.033-0.278,0.152c0.003-0.007,0.005-0.015,0.007-0.023c-0.031,0.045-0.047,0.135-0.062,0.165
	c-0.038,0.076-0.09,0.123-0.149,0.187c-0.023,0.024-0.233,0.311-0.245,0.288c-0.016-0.03-0.181,0.03-0.189-0.013
	c0.007,0.036-0.002,0.024,0.039,0.045c-0.039,0.236-0.138,0.271-0.37,0.273c0.02,0.114-0.084,0.091-0.132,0.152
	c-0.028,0.036-0.042,0.136-0.061,0.182C8.891,12.121,8.8,12.237,8.8,12.26c0,0.021,0.031,0.052,0.059,0.082
	c-0.163,0.033-0.33,0.055-0.499,0.069c0.032-0.04,0.039-0.075-0.061-0.08c0.027-0.073,0.091-0.115,0.117-0.186
	c0.013-0.033,0.002-0.047,0.013-0.08c0.037-0.115,0.021-0.071,0-0.161c-0.049-0.209,0.017-0.265,0.074-0.457
	c0.059-0.197,0.053-0.451,0.091-0.663c0.018-0.101,0.047-0.311,0.012-0.407c-0.04-0.108-0.214-0.193-0.294-0.265
	c-0.113-0.103-0.173-0.214-0.257-0.341C8.012,9.707,7.964,9.643,7.93,9.573c-0.071-0.15,0-0.061,0.012-0.149
	c0.011-0.085-0.01-0.162,0.024-0.252c0.038-0.1,0.132-0.162,0.163-0.262C8.156,8.82,8.135,8.708,8.044,8.678
	C7.993,8.661,7.936,8.7,7.885,8.691C7.813,8.679,7.732,8.626,7.676,8.583C7.598,8.524,7.568,8.427,7.485,8.37
	c-0.07-0.047-0.12-0.019-0.195-0.041C7.212,8.306,7.164,8.209,7.101,8.179c-0.095-0.045-0.147,0.02-0.247,0.007
	C6.769,8.175,6.64,8.081,6.56,8.045C6.4,7.973,6.302,7.893,6.237,7.73c-0.055-0.141-0.135-0.206-0.23-0.323
	C5.911,7.289,5.881,7.188,5.733,7.156C5.716,7.153,5.77,7.281,5.775,7.291c0.053,0.097,0.132,0.187,0.196,0.278
	C6.065,7.703,6.025,7.728,5.93,7.599C5.82,7.45,5.693,7.303,5.599,7.145C5.563,7.086,5.57,7.048,5.511,6.991
	C5.454,6.937,5.379,6.911,5.322,6.859C5.115,6.673,5.077,6.425,5.101,6.159C5.109,6.073,5.14,6.004,5.126,5.921
	C5.115,5.852,5.074,5.795,5.023,5.744c-0.017-0.026-0.057-0.091-0.06-0.095C4.917,5.571,4.88,5.494,4.805,5.43
	C4.763,5.394,4.651,5.307,4.548,5.235C5.016,4.651,5.629,4.188,6.332,3.9c0.005,0.035,0.021,0.071,0.043,0.105
	c0.058,0.086,0.113,0.079,0.226,0.103C6.589,4.239,6.436,4.24,6.333,4.226C6.209,4.209,6.079,4.168,5.971,4.276
	c0.059,0.035,0.221,0.174,0.2,0.029C6.289,4.3,6.404,4.297,6.52,4.311c0.046,0.005,0.202,0.058,0.244,0.034
	c0.018-0.01,0.037-0.097,0.055-0.124c-0.033,0-0.069-0.017-0.101-0.013c0.077-0.098,0.153-0.021,0.251,0.024
	C6.861,4.297,6.925,4.453,7.03,4.326c0.087-0.105-0.021-0.181-0.131-0.241C7.01,3.946,7.078,3.934,7.182,4.09
	c0.017-0.096,0.095-0.058,0.176-0.051V4.015c-0.036,0.001-0.074-0.02-0.109-0.016c0.083-0.132,0.03-0.162,0.148-0.205
	C7.491,3.76,7.759,3.792,7.793,3.703C7.604,3.74,7.377,3.748,7.207,3.834C7.134,3.87,7.047,3.987,6.974,3.911
	C6.899,3.833,7.027,3.708,7.093,3.67H7.077c0.297-0.063,0.606-0.097,0.922-0.097c0.204,0,0.405,0.015,0.602,0.042
	c-0.068,0.036-0.017,0.06-0.067,0.097C8.439,3.781,8.271,3.84,8.158,3.884c0.144,0,0.491,0.135,0.558-0.067
	C8.67,3.81,8.623,3.803,8.577,3.796c0.087-0.057,0.183-0.104,0.285-0.137c0.914,0.181,1.727,0.645,2.345,1.295H11.194z M7.749,4.461
	H7.734c0,0,0.001-0.001,0.002-0.001C7.74,4.461,7.745,4.461,7.749,4.461z M12.003,6.708c0.008-0.017,0.027-0.023,0.035-0.038
	c0.017-0.031,0.013-0.051,0.033-0.077c0.022-0.028,0.051-0.035,0.076-0.057c0.01-0.009,0.015-0.017,0.02-0.025
	c0.074,0.206,0.133,0.419,0.175,0.637c-0.001,0.001-0.002,0.004-0.003,0.005c-0.011,0.009-0.081,0.019-0.095,0.019
	c-0.051,0.002-0.088-0.031-0.125-0.063c-0.037-0.032-0.081-0.075-0.107-0.117c-0.028-0.045-0.011-0.09-0.009-0.142
	C12.006,6.807,11.985,6.747,12.003,6.708z M12.06,9.001c-0.085-0.075-0.187-0.175-0.248-0.271c-0.065-0.103-0.025-0.209-0.021-0.327
	c0.004-0.099-0.044-0.241-0.002-0.33c0.019-0.041,0.064-0.055,0.082-0.088c0.039-0.071,0.03-0.119,0.078-0.179
	c0.051-0.065,0.12-0.081,0.177-0.133c0.06-0.054,0.058-0.097,0.096-0.165c0.027-0.05,0.093-0.134,0.154-0.178
	c0.033,0.219,0.051,0.442,0.051,0.67c0,0.394-0.052,0.776-0.149,1.14C12.194,9.119,12.126,9.059,12.06,9.001z"/>
</svg>
