<svg viewBox="0 0 24 24" class="icon-youtube">
	<path d="M19.9,15.3c-0.1,1.2-1.2,2.3-2.4,2.4C15.6,17.9,13.8,18,12,18s-3.6-0.1-5.5-0.2c-1.2-0.1-2.3-1.2-2.4-2.4
		C4,13.1,4,10.9,4.1,8.7c0.1-1.2,1.2-2.3,2.4-2.4C8.4,6.1,10.2,6,12,6s3.6,0.1,5.5,0.2c1.2,0.1,2.3,1.2,2.4,2.4
		C20,10.9,20,13.1,19.9,15.3z M14.7,11.7L9.9,9.1C9.7,9,9.5,9,9.3,9C9.1,9.1,9,9.3,9,9.4v5.2c0,0.2,0.1,0.3,0.3,0.4
		c0.1,0,0.2,0,0.3,0c0.1,0,0.2,0,0.3-0.1l4.8-2.6c0.2-0.1,0.2-0.2,0.2-0.3C15,11.9,14.9,11.7,14.7,11.7z" />
</svg>
