<svg width="36" height="36" viewBox="0 0 36 36" fill="none" xmlns="http://www.w3.org/2000/svg">
<g clip-path="url(#clip0)">
<g filter="url(#filter0_d)">
<path d="M21.0009 1.25723L30.9991 7.02964C32.856 8.10177 34 10.0832 34 12.2274V23.7722C34 25.9165 32.856 27.8979 30.9991 28.97L21.0009 34.7425C19.144 35.8146 16.856 35.8146 14.9991 34.7425L5.00094 28.97C3.14395 27.8979 2 25.9165 2 23.7722V12.2274C2 10.0832 3.14395 8.10177 5.00094 7.02964L14.9991 1.25723C16.856 0.185092 19.144 0.185091 21.0009 1.25723Z" fill="white"/>
</g>
<path d="M20.0006 2.99016C20.0006 2.99016 20.0006 2.99016 20.0006 2.99016C18.7626 2.27541 17.2374 2.27541 15.9994 2.99016C15.9994 2.99016 15.9994 2.99016 15.9994 2.99016L6.00127 8.7626C6.00128 8.7626 6.00126 8.76261 6.00127 8.7626C5.52443 9.03793 5.60927 9.69462 6.08613 9.96993L10.5686 12.5579C10.8561 12.7239 11.2125 12.6814 11.5 12.5154C11.5 12.5154 11.5 12.5154 11.5 12.5154L16.5 9.62864C16.5 9.62865 16.5 9.62863 16.5 9.62864C17.4282 9.09277 18.5718 9.09274 19.5 9.62861C19.5 9.6286 19.5 9.62862 19.5 9.62861L24.5 12.5154C24.5 12.5154 24.5 12.5154 24.5 12.5154C24.7875 12.6814 25.1439 12.7239 25.4314 12.5579L29.9139 9.96996C30.3908 9.69463 30.4756 9.03791 29.9987 8.76261C29.9988 8.76261 29.9987 8.7626 29.9987 8.76261L20.0006 2.99016Z" fill="#004466"/>
<path d="M31.9994 12.2278C31.9994 11.6801 31.3916 11.4262 30.9173 11.7L26.4252 14.2936C26.1404 14.458 26 14.7846 26 15.1135V20.887C26 21.9588 25.4282 22.9491 24.5 23.485C24.5 23.485 24.5 23.485 24.5 23.485L19.5 26.3718C19.5 26.3718 19.4999 26.3718 19.5 26.3718C19.2138 26.5369 19.0001 26.823 19.0001 27.1534L19 32.3351C19 32.8842 19.525 33.2848 20.0006 33.0102C20.0006 33.0102 20.0006 33.0102 20.0006 33.0102L29.9987 27.2378C29.9987 27.2378 29.9987 27.2378 29.9987 27.2378C31.2367 26.523 31.9994 25.2021 31.9994 23.7726V12.2278Z" fill="#004466"/>
<path d="M15.9994 33.0102C16.475 33.2848 17 32.8842 17 32.3351L17.0001 27.1536C17.0001 26.8232 16.7862 26.537 16.5 26.3718C16.5 26.3718 16.5 26.3718 16.5 26.3718L11.5 23.4851C11.5 23.4851 11.5 23.485 11.5 23.4851C10.5718 22.9492 10 21.9588 10 20.887V15.1135C10 14.7846 9.85964 14.4579 9.57482 14.2935L5.0827 11.7C4.6084 11.4262 4.00061 11.6801 4.00061 12.2278V23.7726C4.00061 25.2021 4.76323 26.523 6.00125 27.2378C6.00123 27.2378 6.00127 27.2378 6.00125 27.2378L15.9994 33.0102C15.9994 33.0102 15.9994 33.0102 15.9994 33.0102Z" fill="#004466"/>
<path d="M17.5 11.3605C17.8094 11.1819 18.1906 11.1819 18.5 11.3605L23.5 14.2473C23.8094 14.4259 24 14.756 24 15.1133V20.8868C24 21.2441 23.8094 21.5742 23.5 21.7528L18.5 24.6396C18.1906 24.8182 17.8094 24.8182 17.5 24.6396L12.5 21.7528C12.1906 21.5742 12 21.2441 12 20.8868V15.1133C12 14.756 12.1906 14.4259 12.5 14.2473L17.5 11.3605Z" fill="#28AED4"/>
</g>
<defs>
<filter id="filter0_d" x="-1" y="-1.54688" width="38" height="41.0934" filterUnits="userSpaceOnUse" color-interpolation-filters="sRGB">
<feFlood flood-opacity="0" result="BackgroundImageFix"/>
<feColorMatrix in="SourceAlpha" type="matrix" values="0 0 0 0 0 0 0 0 0 0 0 0 0 0 0 0 0 0 127 0"/>
<feOffset dy="1"/>
<feGaussianBlur stdDeviation="1.5"/>
<feColorMatrix type="matrix" values="0 0 0 0 0 0 0 0 0 0 0 0 0 0 0 0 0 0 0.1 0"/>
<feBlend mode="normal" in2="BackgroundImageFix" result="effect1_dropShadow"/>
<feBlend mode="normal" in="SourceGraphic" in2="effect1_dropShadow" result="shape"/>
</filter>
<clipPath id="clip0">
<rect width="36" height="36" fill="white"/>
</clipPath>
</defs>
</svg>
