<svg xmlns="http://www.w3.org/2000/svg" xmlns:xlink="http://www.w3.org/1999/xlink"><defs><symbol viewBox="0 0 10 6" id="arrow-down">
  <polyline vector-effect="non-scaling-stroke" points="1 1 5 5 9 1" />
</symbol><symbol viewBox="0 0 6 10" id="arrow-left">
  <polyline vector-effect="non-scaling-stroke" points="5 1 1 5 5 9" />
</symbol><symbol viewBox="0 0 6 10" id="arrow-right">
  <polyline vector-effect="non-scaling-stroke" points="1 1 5 5 1 9" />
</symbol><symbol viewBox="0 -1 8 6" id="arrow-up">
  <polyline vector-effect="non-scaling-stroke" points="8 4 4 0 0 4" />
</symbol><symbol viewBox="0 0 16 16" id="bitbucket">
  <defs>
    
  </defs>
  <path class="icon-bitbucket" d="M.52.81a.51.51,0,0,0-.52.5A.28.28,0,0,0,0,1.4L2.18,14.61a.69.69,0,0,0,.68.58H13.3a.51.51,0,0,0,.52-.43L16,1.4a.5.5,0,0,0-.42-.58H.52Zm9.16,9.54H6.35l-.9-4.71h5Z" />
  <path class="icon-bitbucket-gradient" fill="url(#bitbucket_bitbucket-gradient)" d="M15.3,5.64H10.49l-.81,4.71H6.35L2.42,15a.66.66,0,0,0,.44.17H13.31a.51.51,0,0,0,.51-.43Z" />
</symbol><linearGradient id="bitbucket_bitbucket-gradient" x1="16.42" y1="9.04" x2="8.46" y2="2.83" gradientTransform="matrix(1, 0, 0, -1, 0, 16)" gradientUnits="userSpaceOnUse">
      <stop offset="0.18" stop-color="rgba(0,0,0,.35)" />
      <stop offset="1" stop-color="rgba(0,0,0,0)" />
    </linearGradient><symbol viewBox="0 0 16 16" id="bitbucket-color">
  <defs>
    
  </defs>
  <path class="icon-bitbucket-color" fill="#2684ff" d="M.52.81a.51.51,0,0,0-.52.5A.28.28,0,0,0,0,1.4L2.18,14.61a.69.69,0,0,0,.68.58H13.3a.51.51,0,0,0,.52-.43L16,1.4a.5.5,0,0,0-.42-.58H.52Zm9.16,9.54H6.35l-.9-4.71h5Z" />
  <path class="icon-bitbucket-color-gradient" fill="url(#bitbucket-color_bitbucket-color-gradient)" d="M15.3,5.64H10.49l-.81,4.71H6.35L2.42,15a.66.66,0,0,0,.44.17H13.31a.51.51,0,0,0,.51-.43Z" />
</symbol><linearGradient id="bitbucket-color_bitbucket-color-gradient" x1="16.42" y1="9.04" x2="8.46" y2="2.83" gradientTransform="matrix(1, 0, 0, -1, 0, 16)" gradientUnits="userSpaceOnUse">
      <stop offset="0.18" stop-color="#0052cc" />
      <stop offset="1" stop-color="#2684ff" />
    </linearGradient><symbol viewBox="0 0 16 16" id="bitbucket-white">
  <defs>
    
  </defs>
  <path class="icon-bitbucket-white" fill="#fff" d="M6.35,10.35l-.9-4.71h9.86L16,1.4a.51.51,0,0,0-.41-.58H.52a.51.51,0,0,0-.52.5H0V1.4L2.18,14.61a.7.7,0,0,0,.23.41Z" />
  <path class="icon-bitbucket-white-gradient" fill="url(#bitbucket-white_bitbucket-white-gradient)" d="M9.68,10.35H6.35L2.18,14.61a.7.7,0,0,0,.23.41h0a.8.8,0,0,0,.27.15l.18,0H13.3a.51.51,0,0,0,.52-.43l1.49-9.12H10.45Z" />
</symbol><linearGradient id="bitbucket-white_bitbucket-white-gradient" x1="16.36" y1="6.99" x2="3.79" y2="16.81" gradientUnits="userSpaceOnUse">
      <stop offset="0" stop-color="#fff" stop-opacity="0.3" />
      <stop offset="0.6" stop-color="#fff" />
    </linearGradient><symbol viewBox="0 0 16 16" id="campfire-color">
  <path fill="#99d9e8" d="M8,1.33C3.69,1.33.32,6.81,0,11.44c1.35,2.35,4.61,3.23,8,3.23s6.65-.88,8-3.23C15.68,6.81,12.31,1.33,8,1.33Z" />
  <path fill="#70bf54" d="M14.75,11.16c0,1.38-3.1,2.68-6.93,2.78C4,13.84.87,12.53.88,11.16S3.87,7,7.82,6.95,14.75,9.81,14.75,11.16Z" />
  <ellipse fill="#695114" opacity="0.64" cx="7.82" cy="10.81" rx="2.96" ry="1.39" />
  <path fill="#ff7f00" d="M7.38,4.73c.25,1-.79,1.43-1.34,2.17-.94,1.18-1.59,3.6,0,4.58l.19.1a4.11,4.11,0,0,0,3.2-.14,1.45,1.45,0,0,0,.88-.94c.12-.65-.67-.89-.63-1.54A1.53,1.53,0,0,1,10,8.21c.22-.37.32-1.12-.29-1.18,0,.26-.4,1.05-.78.73-.23-.19,0-.61.08-.83A2.55,2.55,0,0,0,7.23,3.83" />
  <path fill="#ff0" d="M8.74,9.93a1.48,1.48,0,0,1,0,.53,1.18,1.18,0,0,1-.18.47,1,1,0,0,1-.17.2l-.1.07-.12,0-.22,0H7.66a1.07,1.07,0,0,1-.46-.15,1.67,1.67,0,0,1-.41-.3,1.57,1.57,0,0,1-.27-1.89c.28-.55.84-.95,1.13-1.49a1,1,0,0,0,.11-.31.75.75,0,0,0,0-.39l.12.06a.27.27,0,0,1,.08.1.46.46,0,0,1,0,.26.87.87,0,0,1-.08.27c-.06.11-.07.23-.12.35A1.88,1.88,0,0,1,7.6,8a.92.92,0,0,0-.15.31,2.33,2.33,0,0,0-.07.46,1.2,1.2,0,0,0,.22.57.43.43,0,0,0,.54.23,1.4,1.4,0,0,0,.7-.74A1.17,1.17,0,0,0,8.74,9.93Z" />
  <path fill="#fff" opacity="0.75" d="M7.61,10.83a.51.51,0,0,1-.46-.35,1.42,1.42,0,0,1-.07-.7c0-.07.06-.14.08-.22s0-.21.08-.27,0,.21,0,.22,0,.1,0,.13.06,0,.09,0,.14.29.2.41c.18.34.46.46.77.15a.93.93,0,0,1-.5.47" />
  <path fill="#695114" opacity="0.15" d="M14,9.74c-.79-.26-1.3,2-2.64,2.85a15.94,15.94,0,0,1-3.83,1.29,13,13,0,0,0,5.5-1c1.17-.48,2.54-1.54,1-3.11" />
  <path fill="#695114" opacity="0.15" d="M2,12.42C.68,11.58,3.36,8.8,3.84,8.05A6.34,6.34,0,0,0,1.42,10c-.66,1-.88,1.72.43,2.51" />
</symbol><symbol viewBox="0 0 16 14" id="card">
  <path d="M14,0H2A2,2,0,0,0,0,2V12a2,2,0,0,0,2,2H14a2,2,0,0,0,2-2V2A2,2,0,0,0,14,0Zm0,12H2V5H14Zm0-9H2V2H14ZM3,10.5a.5.5,0,0,1,.5-.5h1a.5.5,0,0,1,.5.5.5.5,0,0,1-.5.5h-1A.5.5,0,0,1,3,10.5Zm3,0a.5.5,0,0,1,.5-.5h3a.5.5,0,0,1,.5.5.5.5,0,0,1-.5.5h-3A.5.5,0,0,1,6,10.5Z" />
</symbol><symbol viewBox="0 0 8 8" id="check">
  <polyline vector-effect="non-scaling-stroke" points="1 4 3.25 7 7 1" />
</symbol><symbol viewBox="0 0 100 100" class="icon-codeship" id="codeship">
  <circle fill="#FFFFFF" cx="50" cy="50" r="50" />
  <path d="M40.1113095,7.89007937 C39.3621032,8.26448413 38.8888889,9.03015873 38.8888889,9.86785714 L38.8888889,16.1948413 C46.2434524,14.9503968 53.756746,14.9503968 61.1111111,16.1948413 L61.1111111,9.86785714 C61.1111111,9.03015873 60.6380952,8.26448413 59.8888889,7.89007937 C56.7763889,6.33373016 53.3882937,5.55555556 50,5.55555556 C46.6119048,5.55555556 43.2238095,6.33373016 40.1113095,7.89007937 Z" fill="#28AED4" />
  <path d="M89.968254,69.4615079 C82.7521825,84.2535714 67.5662698,94.4444444 50,94.4444444 C31.2585317,94.4444444 15.2265873,82.8440476 8.69218254,66.4319444 C12.0240079,63.4801587 15.9384921,61.1111111 22.2222222,61.1111111 C30.5555556,61.1111111 34.7222222,65.2777778 38.8888889,69.4444444 C43.0555556,73.6111111 47.2222222,77.7777778 55.5555556,77.7777778 C62.5,77.7777778 67.3611111,75.6944444 72.2222222,73.6111111 C77.0833333,71.5277778 81.9444444,69.4444444 88.8888889,69.4444444 C89.255754,69.4444444 89.6154762,69.4501984 89.968254,69.4615079 Z" fill="#28AED4" />
  <path d="M10.344246,70.0886905 C12.2279762,69.6867063 14.2984127,69.4444444 16.6666667,69.4444444 C23.6111111,69.4444444 28.4722222,71.5277778 33.3333333,73.6111111 C33.9440476,73.8728175 34.5547619,74.1345238 35.1696429,74.3920635 C32.5142857,65.5047619 28.4363095,54.2095238 22.9365079,45.5428571 C22.5416667,44.9204365 22.6825397,44.0962302 23.2869048,43.6742063 C34.3656746,35.9390873 50,33.3333333 50,33.3333333 C50,33.3333333 65.6345238,35.9390873 76.7132937,43.6742063 C77.3176587,44.0962302 77.4585317,44.9204365 77.0636905,45.5428571 C72.4625,52.7934524 68.8565476,61.8837302 66.2460317,69.8646825 L66.6666667,69.4444444 C70.8333333,65.2777778 75,61.1111111 83.3333333,61.1111111 C87.0835317,61.1111111 89.9896825,61.9549603 92.4319444,63.2626984 C86.7904762,81.330754 69.9267857,94.4444444 50,94.4444444 C32.6833333,94.4444444 17.6797619,84.540873 10.344246,70.0886905 Z M50,38.8888889 C44.4444444,47.2222222 50,72.2222222 50,72.2222222 C50,72.2222222 55.5555556,47.2222222 50,38.8888889 Z" fill="#004466" />
  <path d="M28.5700397,24.7029762 C28.0936508,24.8815476 27.7777778,25.3371032 27.7777778,25.8458333 L27.7777778,34.6861111 C31.8015873,32.7494048 35.8119048,31.3180556 39.1738095,30.2902778 C41.9829365,29.4315476 44.4253968,28.8287698 46.1759921,28.4386905 C47.4910714,28.1458333 48.4236111,27.9708333 48.843254,27.8958333 L50,27.7011905 L50.9904762,27.8664683 L51.1569444,27.8958333 C51.296627,27.9208333 51.4936508,27.9569444 51.7424603,28.0047619 C52.2402778,28.1003968 52.947619,28.2434524 53.8242063,28.4386905 C55.5748016,28.8287698 58.0172619,29.4315476 60.8263889,30.2902778 C64.1882937,31.3180556 68.1986111,32.7494048 72.2222222,34.6861111 L72.2222222,25.8458333 C72.2222222,25.3371032 71.9065476,24.8815476 71.4301587,24.7029762 C57.6132937,19.521627 42.3869048,19.521627 28.5700397,24.7029762 Z" fill="#004466" />
</symbol><symbol viewBox="0 0 30 30" class="icon-logo" id="codeship-logo">
  <circle class="icon-logo-outline" vector-effect="non-scaling-stroke" r="14" cx="15" cy="15" />
  <path class="icon-logo-waves" d="M12.8,6.6V4.2c0-.3,1.4-.7,2.3-.7s2.3.4,2.3.7V6.6l-2.3-.3Zm-5.3,14c1,.1,4.8,1.7,8.5-.4h-.9a13.5,13.5,0,0,1-3.5-2s-3.6-3.7-7.8.2l.5,1.4C5.2,19.3,6.4,20.5,7.5,20.7Z" />
  <path class="icon-logo-ship" d="M4.2,19.7h0Zm15.8-8.6V8.6c0-.3-3-1.1-5-1.1s-4.9.8-4.9,1.1v2.5a17.9,17.9,0,0,1,4.8-2.4A17.5,17.5,0,0,1,20.1,11.2Zm1.2,5c-.7.1-1.6,1.2-2.7,2.3a11.6,11.6,0,0,1,2.7-4.9l-1.2-1h0A16,16,0,0,0,15.1,10h0a12.3,12.3,0,0,0-2.1.9,16.5,16.5,0,0,0-4,2.7H9A10.8,10.8,0,0,1,11.5,18h0l.4.3a7.4,7.4,0,0,0,3.1,1.7h0l-.5-3.8V13.8l.6-2.9.6,2.9v2.6l-.4,3.8H16a6.9,6.9,0,0,1-5.8-.1,8.5,8.5,0,0,0-2.8-1,6.6,6.6,0,0,0-3.1.5h0a12,12,0,0,0,11.2,7.1,12,12,0,0,0,10.7-7.5l.3-.7C24.8,17.4,22.3,15.9,21.3,16.1Zm0,0Z" />
</symbol><symbol viewBox="0 0 16 16" class="icon-dribbble" id="dribbble">
<path d="M8,2.999c-2.757,0-5,2.243-5,5s2.243,5,5,5s5-2.243,5-5S10.757,2.999,8,2.999z M11.306,5.305
	c0.595,0.727,0.955,1.653,0.965,2.661C12.13,7.937,10.718,7.65,9.297,7.829c-0.03-0.073-0.061-0.147-0.092-0.221
	C9.116,7.4,9.021,7.193,8.921,6.99C10.5,6.345,11.216,5.427,11.306,5.305z M8,3.735c1.085,0,2.077,0.407,2.831,1.076
	c-0.077,0.109-0.72,0.973-2.239,1.543c-0.699-1.285-1.475-2.342-1.593-2.5C7.321,3.777,7.655,3.735,8,3.735z M6.185,4.141
	c0.113,0.155,0.876,1.212,1.583,2.47C5.77,7.141,4.011,7.133,3.82,7.131C4.097,5.806,4.99,4.704,6.185,4.141z M3.729,8.007
	c0-0.044,0.001-0.087,0.002-0.131c0.187,0.003,2.257,0.03,4.389-0.608C8.243,7.508,8.359,7.75,8.467,7.993
	C8.411,8.009,8.354,8.026,8.299,8.044c-2.203,0.712-3.375,2.653-3.471,2.819C4.145,10.106,3.729,9.104,3.729,8.007z M7.999,12.277
	c-0.987,0-1.897-0.337-2.621-0.901c0.077-0.157,0.942-1.828,3.351-2.668c0.01-0.003,0.019-0.006,0.027-0.009
	c0.6,1.558,0.848,2.864,0.911,3.239C9.155,12.156,8.591,12.277,7.999,12.277z M10.387,11.547c-0.044-0.26-0.271-1.511-0.83-3.046
	c1.338-0.215,2.514,0.136,2.661,0.183C12.027,9.873,11.345,10.899,10.387,11.547z" />
</symbol><symbol viewBox="0 0 16 16" id="email-color">
  <path fill="#e06158" d="M13,10.2l0,0c-.48.18-1.06-.06-1.63-.62V5.37a1,1,0,0,0-.65-.94c-2-.75-3.84-.69-5.09.18A4,4,0,0,0,4,8a3.89,3.89,0,0,0,2.17,3.66A3.82,3.82,0,0,0,7.8,12a4.79,4.79,0,0,0,2.43-.71,3.62,3.62,0,0,0,2.77.94ZM9.33,9.52A2.38,2.38,0,0,1,7,9.85,1.92,1.92,0,0,1,6,8a2.05,2.05,0,0,1,.75-1.75A2.28,2.28,0,0,1,8,5.91a5,5,0,0,1,1.29.19Z" />
  <path fill="#ff9f49" d="M12.22,3.76m1.44-1.41-1.43,1.4A6,6,0,0,1,14,8a2.3,2.3,0,0,1-1,2.2v2.05a2.93,2.93,0,0,0,.65-.16C15.1,11.56,16,10,16,8A8,8,0,0,0,13.65,2.35Z" />
  <path fill="#ffca49" d="M3.76,3.76,2.35,2.35a8,8,0,0,1,11.31,0l-1.43,1.4a6,6,0,0,0-8.47,0Z" />
  <path fill="#3acc7c" d="M2,8A6,6,0,0,1,3.76,3.76L2.35,2.35a8,8,0,0,0,0,11.31l1.41-1.41A6,6,0,0,1,2,8Z" />
  <path fill="#1ca1e3" d="M2.35,13.65a8,8,0,0,0,9.41,1.41,1,1,0,0,0-.94-1.77,6,6,0,0,1-7.05-1.06Z" />
</symbol><symbol viewBox="0 0 8 8" id="error">
  <line vector-effect="non-scaling-stroke" x1="4" x2="4" y1="1" y2="4" />
  <line vector-effect="non-scaling-stroke" x1="4" x2="4" y1="7" y2="7" />
</symbol><symbol viewBox="0 0 6 6" id="error-xs">
  <path d="M3 1L5 5H1L3 1Z" vector-effect="non-scaling-stroke" />
</symbol><symbol viewBox="0 0 24 24" class="icon-facebook" id="facebook">
	<path d="M7,12h2v8h3v-8h3l0.7-3H12c0,0-0.3-1.1,0.2-1.5c0.3-0.2,0.7-0.4,1.3-0.4c0.6,0,1.1,0.3,1.7,0.6l0.9-2.9
		c-1.1-0.3-2-0.6-3.2-0.6c-1.1,0-1.8,0.2-2.5,0.5C9.7,4.9,9.4,5.5,9.1,5.9C8.9,6.4,8.7,6.8,8.7,7.8V9H7L7,12z" />
</symbol><symbol viewBox="0 0 6 6" id="fail">
  <line vector-effect="non-scaling-stroke" x1="5" x2="1" y1="1" y2="5" />
  <line vector-effect="non-scaling-stroke" x1="1" x2="5" y1="1" y2="5" />
</symbol><symbol viewBox="0 0 16 16" id="flowdock-color">
  <path fill="#49495f" d="M9.6,4a1,1,0,0,1,1.05-.87,1.79,1.79,0,0,1,1.15.32.14.14,0,0,0,.19,0l1.16-1.36a.14.14,0,0,0,0-.2A5.43,5.43,0,0,0,10,.46,3.41,3.41,0,0,0,6.6,3.86h0v12a8,8,0,0,0,2.89,0,.14.14,0,0,0,.11-.14v-8a.14.14,0,0,1,.14-.14h2.12A.14.14,0,0,0,12,7.46V5.14A.14.14,0,0,0,11.86,5H9.74a.14.14,0,0,1-.14-.14Z" />
  <path fill="#1ba3fb" d="M.52,10.84a42.81,42.81,0,0,0,5.88.56v4.44A8,8,0,0,1,.52,10.84Z" />
  <path fill="#77fcff" d="M.16,9.6A15.71,15.71,0,0,1,6.4,8v3.4a42.81,42.81,0,0,1-5.88-.56A7.94,7.94,0,0,1,.16,9.6Z" />
  <path fill="#dff974" d="M0,8A8,8,0,0,0,.16,9.6,15.71,15.71,0,0,1,6.4,8V5A28.29,28.29,0,0,1,1.07,4,8,8,0,0,0,0,8Z" />
  <path fill="#fa4588" d="M6.4,3.84A3.56,3.56,0,0,1,10,.27h.12A8,8,0,0,0,1.07,4,28.27,28.27,0,0,0,6.4,5Z" />
</symbol><symbol class="icon-gear icon-outline" viewBox="0 0 10 10" id="gear">
  <path vector-effect="non-scaling-stroke" d="M8,5 C8,6.65685425 6.65685425,8 5,8 C3.34314575,8 2,6.65685425 2,5 C2,3.34314575 3.34314575,2 5,2 C5.79564947,2 6.55871121,2.31607052 7.12132034,2.87867966 C7.68392948,3.44128879 8,4.20435053 8,5 Z M5,1 L5,2 L5,1 Z M5,8 L5,9 L5,8 Z M1,5 L2,5 L1,5 Z M8,5 L9,5 L8,5 Z M2.17,2.17 L2.88,2.88 L2.17,2.17 Z M7.12,7.12 L7.83,7.83 L7.12,7.12 Z M2.17,7.83 L2.88,7.12 L2.17,7.83 Z M7.12,2.88 L7.83,2.17 L7.12,2.88 Z" />
</symbol><symbol class="icon-github" viewBox="0 0 16 16" id="github">
  <path d="M8,0A8.1,8.1,0,0,0,0,8.2,8.19,8.19,0,0,0,5.47,16c.4.08.55-.18.55-.4s0-.71,0-1.4c-2.23.5-2.69-1.1-2.69-1.1a2.16,2.16,0,0,0-.89-1.2c-.73-.51.05-.5.05-.5a1.69,1.69,0,0,1,1.23.85A1.68,1.68,0,0,0,6,12.92a1.77,1.77,0,0,1,.51-1.1c-1.78-.21-3.64-.91-3.64-4.05a3.22,3.22,0,0,1,.82-2.2A3,3,0,0,1,3.8,3.4s.67-.22,2.2.84a7.4,7.4,0,0,1,4,0c1.53-1.06,2.2-.84,2.2-.84a3,3,0,0,1,.08,2.17,3.21,3.21,0,0,1,.82,2.2c0,3.15-1.87,3.84-3.65,4A2,2,0,0,1,10,13.34c0,1.1,0,2,0,2.25s.14.47.55.39A8.19,8.19,0,0,0,16,8.2,8.1,8.1,0,0,0,8,0Z" />
</symbol><symbol viewBox="0 0 16 16" class="icon-github" id="github-octocat">
<path d="M12.196,3.421c0,0-0.67-0.22-2.195,0.84c-0.638-0.182-1.322-0.272-2-0.275c-0.679,0.003-1.363,0.094-2,0.275
	c-1.526-1.06-2.197-0.84-2.197-0.84C3.37,4.55,3.644,5.382,3.726,5.59C3.215,6.162,2.904,6.893,2.904,7.788
	c0,3.139,1.865,3.842,3.639,4.048c-0.229,0.205-0.435,0.566-0.507,1.095c-0.455,0.21-1.612,0.571-2.325-0.681
	c0,0-0.423-0.786-1.224-0.844c0,0-0.78-0.01-0.055,0.498c0,0,0.524,0.252,0.887,1.198c0,0,0.469,1.593,2.691,1.098
	c0.004,0.684,0.011,1.199,0.011,1.393c0,0.217-0.146,0.47-0.545,0.395C5.466,15.993,5.458,15.996,5.449,16h5.286
	c-0.069-0.003-0.134-0.013-0.203-0.013c-0.406,0.08-0.55-0.174-0.55-0.394c0-0.268,0.01-1.152,0.01-2.247
	c0-0.764-0.256-1.264-0.543-1.517c1.779-0.203,3.647-0.895,3.647-4.042c0-0.894-0.309-1.625-0.821-2.198
	C12.357,5.382,12.632,4.55,12.196,3.421z" />
</symbol><symbol class="icon-gitlab" viewBox="0 0 16 16" id="gitlab">
  <path d="M.91,6.28,8,15.47.26,9.76a.58.58,0,0,1-.21-.69L.91,6.28h0L2.67.73a.32.32,0,0,1,.59,0L5,6.28ZM16,9.06l-.91-2.78h0L13.3.73a.32.32,0,0,0-.59,0L10.95,6.28H5.07L8,15.47l2.94-9.19h4.11L8,15.47H8l7.74-5.71A.58.58,0,0,0,16,9.06Z" />
</symbol><symbol viewBox="0 0 16 16" id="gitlab-color">
  <path class="icon-gitlab-head" fill="#fc6d26" d="M16,9.06l-.9-2.76L13.3.84a.31.31,0,0,0-.58,0L11,6.3H5.05L3.28.84a.31.31,0,0,0-.58,0L.93,6.3,0,9.06a.62.62,0,0,0,.22.68L8,15.37l7.75-5.63A.62.62,0,0,0,16,9.06" />
  <path class="icon-gitlab-scruff" fill="#fca326" d="M.93,6.3h0L0,9.06a.62.62,0,0,0,.22.68L8,15.37.93,6.3Zm14.14,0h0L16,9.06a.62.62,0,0,1-.22.68L8,15.37,15.07,6.3Z" />
  <path class="icon-gitlab-ears-nose" fill="#e24329" d="M8,15.37H8L11,6.3H5.05l3,9.07ZM.93,6.3H5.05L3.28.84a.31.31,0,0,0-.58,0L.93,6.3Zm14.14,0H11L12.72.84a.31.31,0,0,1,.58,0L15.07,6.3Z" />
</symbol><symbol viewBox="0 0 24 24" class="icon-google" id="google">
	<path d="M17.9,7.9v1.8h-0.9V7.9h-1.8V7.1h1.8V5.3h0.9v1.8h1.8v0.9H17.9z M14.1,16.4
		c0,3.8-4.9,3.6-4.9,3.6s-4.2,0.1-4.2-2.9s4.8-2.9,5.1-2.9c-0.1-0.7-0.5-0.6-0.5-0.9v-0.8c0,0-3.6,0.4-3.6-3S9.9,6,9.9,6h4.1
		c0,0.6-1.9,0.4-1.9,0.7c1.1,0.5,1.2,1.2,1.2,2.5c0,2.1-2.1,2.4-2.1,3.3C11.3,13.5,14.1,14.2,14.1,16.4z M11.3,8.7
		c-0.4-1.3-1.5-2.2-2.5-2C7.8,7,7.3,8.3,7.7,9.7c0.4,1.3,1.5,2.2,2.5,2C11.2,11.4,11.7,10.1,11.3,8.7z M9.5,14.8
		c-1.7,0.1-3,1.2-2.9,2.3c0.1,1.2,1.5,2,3.2,1.9c1.7-0.1,3-1.2,2.9-2.3C12.6,15.5,11.2,14.7,9.5,14.8z" />
</symbol><symbol viewBox="0 0 16 16" id="google-app-engine">
  <path id="google-app-engine_icon-app-engine-hexagon" fill="#4285f4" d="M15.81,7.26,12.52,1.55A1.44,1.44,0,0,0,11.29.81H4.71a1.44,1.44,0,0,0-1.23.74L.19,7.25a1.46,1.46,0,0,0,0,1.43l3.29,5.75a1.47,1.47,0,0,0,1.23.76h6.58a1.48,1.48,0,0,0,1.23-.76l3.29-5.72A1.5,1.5,0,0,0,15.81,7.26Z" />
  <path id="google-app-engine_icon-app-engine-shadow" fill="#4c7adc" d="M12.66,7.75l-.09,0L8.21,3.36l-.9,1.31.75.75-1.9.69L5.41,8l-.74-.73L3.36,8.44l6.75,6.75h1.18a1.48,1.48,0,0,0,1.23-.76L15,10.1Z" />
  <path id="google-app-engine_icon-app-engine-rocket" fill="#fff" d="M8,5.12A2.88,2.88,0,1,0,10.87,8h0A2.87,2.87,0,0,0,8,5.12m0,5.07A2.19,2.19,0,1,1,10.18,8,2.19,2.19,0,0,1,8,10.19H8m4.52-2.52-1.2-.38a3.51,3.51,0,0,1,.07.72,4.07,4.07,0,0,1,0,.5h1.16a.2.2,0,0,0,.18-.19V7.85a.21.21,0,0,0-.18-.19M8,4.6a3.27,3.27,0,0,1,.7.08l-.43-1.2a.21.21,0,0,0-.2-.18H7.89a.2.2,0,0,0-.19.18L7.32,4.67A3.82,3.82,0,0,1,8,4.61M4.61,8a3.51,3.51,0,0,1,.07-.72l-1.2.37a.22.22,0,0,0-.18.2v.46a.21.21,0,0,0,.18.19H4.64a4.19,4.19,0,0,1,0-.5M9,7.06l-.28.27h0A1,1,0,0,0,7.29,8.8L7,9.07a1.41,1.41,0,0,0,2,0,1.43,1.43,0,0,0,0-2m-.56,1.4a.67.67,0,0,1-.94,0,.66.66,0,0,1,0-.94.65.65,0,0,1,.93,0h0a.66.66,0,0,1,0,.93h0" />
</symbol><symbol viewBox="0 0 16 16" id="grove-color">
  <path fill="#9cbf5f" d="M3.33,9.69A5.34,5.34,0,0,0,8,12.44l-3-6Z" />
  <polygon fill="#517e4a" points="8 4.62 4.09 12.44 11.91 12.44 8 4.62" />
  <path fill="#9cbf5f" d="M13.33,7.11A5.32,5.32,0,0,0,11.7,3.27l-4.55,9.1a5.33,5.33,0,0,0,6.19-5.26Z" />
  <path fill="#000" d="M15.11,7.11a7.11,7.11,0,1,0-8.18,7v1.5a.36.36,0,0,0,.54.31l4.15-2.72h0A7.11,7.11,0,0,0,15.11,7.11ZM8,12.44a5.33,5.33,0,1,1,5.33-5.33A5.34,5.34,0,0,1,8,12.44Z" />
</symbol><symbol viewBox="0 0 24 24" id="hamburger">
  <line vector-effect="non-scaling-stroke" x1="1" y1="5" x2="23" y2="5" />
  <line vector-effect="non-scaling-stroke" x1="1" y1="12" x2="23" y2="12" />
  <line vector-effect="non-scaling-stroke" x1="1" y1="19" x2="23" y2="19" />
</symbol><symbol class="icon-hipchat" viewBox="0 0 16 16" id="hipchat">
  <path d="M12.37,9a.32.32,0,0,0-.32-.32.31.31,0,0,0-.21.08A5.86,5.86,0,0,1,8,10.1H8A6.1,6.1,0,0,1,4.16,8.73a.4.4,0,0,0-.22-.07A.32.32,0,0,0,3.63,9a.75.75,0,0,0,.18.38A5.16,5.16,0,0,0,8,11.32H8a5.16,5.16,0,0,0,4.17-1.93A.87.87,0,0,0,12.37,9Zm2.21,5.56a2.94,2.94,0,0,1-1.35-1.61.3.3,0,0,1,.11-.35A6.52,6.52,0,0,0,16,7.43c0-3.81-3.58-6.9-8-6.9S0,3.62,0,7.43s3.58,6.9,8,6.9a9.26,9.26,0,0,0,1.68-.15.45.45,0,0,1,.33.06,8.6,8.6,0,0,0,4.16,1.24.56.56,0,0,0,.64-.56A.43.43,0,0,0,14.58,14.53Zm-2.14-.67a.15.15,0,0,1,0,.09s0,.08-.1.08a6,6,0,0,1-2.29-1.21.43.43,0,0,0-.39-.06,8,8,0,0,1-1.7.18c-3.68,0-6.66-2.46-6.66-5.5s3-5.5,6.66-5.5,6.66,2.46,6.66,5.5A5.25,5.25,0,0,1,12,11.86a.44.44,0,0,0-.23.35A3.73,3.73,0,0,0,12.44,13.86Z" />
</symbol><symbol viewBox="0 0 16 16" id="hipchat-color">
  <path fill="#172b4d" d="M12.37,9a.32.32,0,0,0-.32-.32.31.31,0,0,0-.21.08A5.86,5.86,0,0,1,8,10.1H8A6.1,6.1,0,0,1,4.16,8.73a.4.4,0,0,0-.22-.07A.32.32,0,0,0,3.63,9a.75.75,0,0,0,.18.38A5.16,5.16,0,0,0,8,11.32H8a5.16,5.16,0,0,0,4.17-1.93A.87.87,0,0,0,12.37,9Zm2.21,5.56a2.94,2.94,0,0,1-1.35-1.61.3.3,0,0,1,.11-.35A6.52,6.52,0,0,0,16,7.43c0-3.81-3.58-6.9-8-6.9S0,3.62,0,7.43s3.58,6.9,8,6.9a9.26,9.26,0,0,0,1.68-.15.45.45,0,0,1,.33.06,8.6,8.6,0,0,0,4.16,1.24.56.56,0,0,0,.64-.56A.43.43,0,0,0,14.58,14.53Zm-2.14-.67a.15.15,0,0,1,0,.09s0,.08-.1.08a6,6,0,0,1-2.29-1.21.43.43,0,0,0-.39-.06,8,8,0,0,1-1.7.18c-3.68,0-6.66-2.46-6.66-5.5s3-5.5,6.66-5.5,6.66,2.46,6.66,5.5A5.25,5.25,0,0,1,12,11.86a.44.44,0,0,0-.23.35A3.73,3.73,0,0,0,12.44,13.86Z" />
</symbol><symbol viewBox="0 0 24 24" class="icon-instagram" id="instagram">
	<path d="M17,19H7c-1.1,0-2-0.9-2-2V7c0-1.1,0.9-2,2-2h10c1.1,0,2,0.9,2,2v10C19,18.1,18.1,19,17,19z
		M12,10c-1.1,0-2,0.9-2,2s0.9,2,2,2s2-0.9,2-2S13.1,10,12,10z M16,7c-0.6,0-1,0.4-1,1s0.4,1,1,1c0.6,0,1-0.4,1-1S16.6,7,16,7z
		M17,12h-1c0,2.2-1.8,4-4,4s-4-1.8-4-4H7v4c0,0.6,0.4,1,1,1h8c0.6,0,1-0.4,1-1V12z" />
</symbol><symbol class="icon-invision" viewBox="0 0 16 16" id="invision">
  <path d="M14.55,0H1.45A1.45,1.45,0,0,0,0,1.45v13.1A1.45,1.45,0,0,0,1.45,16h13.1A1.45,1.45,0,0,0,16,14.55V1.45A1.45,1.45,0,0,0,14.55,0ZM5.35,3.15a1,1,0,1,1-1,1A1,1,0,0,1,5.35,3.15Zm6.53,9.21A1.31,1.31,0,0,1,10.42,11a2.55,2.55,0,0,1,.1-.72L11,8.55A1.72,1.72,0,0,0,11.06,8a.8.8,0,0,0-.86-.88c-.68,0-1.12.47-1.35,1.41l-.92,3.67H6.32l.29-1.15a2.29,2.29,0,0,1-1.94,1.26,1.29,1.29,0,0,1-1.44-1.41,3.23,3.23,0,0,1,.09-.71l.73-3H2.92L3.26,6H6L4.92,10.24a2.69,2.69,0,0,0-.1.65c0,.27.13.35.34.4a1.79,1.79,0,0,0,1.7-1.22l.71-2.83H6.42L6.77,6H9.22L8.91,7.41A2.79,2.79,0,0,1,11,5.84,1.67,1.67,0,0,1,12.7,7.72a3.64,3.64,0,0,1-.16,1l-.46,1.65a1.91,1.91,0,0,0-.07.45c0,.29.11.43.33.43s.49-.16.8-1l.63.24C13.4,11.81,12.73,12.35,11.88,12.35Z" />
</symbol><symbol viewBox="0 0 24 24" class="icon-linkedin" id="linkedin">
	<path d="M17,18H7c-0.6,0-1-0.4-1-1V7c0-0.6,0.4-1,1-1h10c0.6,0,1,0.4,1,1v10C18,17.6,17.6,18,17,18z
		M8,16h1.7v-5.4H8V16z M8.9,8c-0.6,0-1,0.4-1,0.9c0,0.5,0.4,0.9,0.9,0.9h0c0.6,0,1-0.4,1-0.9C9.9,8.4,9.5,8,8.9,8z M15.9,12.9
		c0-1.7-0.8-2.4-2-2.4c-0.9,0-1.3,0.5-1.5,0.9v-0.8h-1.7c0,0.5,0,5.4,0,5.4h1.7v-3c0-0.2,0-0.3,0.1-0.4c0.1-0.3,0.4-0.7,0.9-0.7
		c0.6,0,0.9,0.5,0.9,1.2V16h1.7V12.9z M12.4,11.4C12.4,11.4,12.4,11.4,12.4,11.4L12.4,11.4L12.4,11.4z" />
</symbol><symbol viewBox="0 0 12 14" id="lock">
  <path d="M10,5V4A4,4,0,0,0,2,4V5A2,2,0,0,0,0,7v5a2,2,0,0,0,2,2h8a2,2,0,0,0,2-2V7A2,2,0,0,0,10,5ZM7,10.05a1,1,0,0,1-.95.95h-.1A1,1,0,0,1,5,10.05V8.95A1,1,0,0,1,5.95,8h.1A1,1,0,0,1,7,8.95ZM8,5H4V4A2,2,0,0,1,8,4Z" />
</symbol><symbol viewBox="0 0 6 6" id="paused">
  <line vector-effect="non-scaling-stroke" x1="5" x2="5" y1="1" y2="5" />
  <line vector-effect="non-scaling-stroke" x1="1" x2="1" y1="1" y2="5" />
</symbol><symbol class="icon-plus" viewBox="0 0 6 6" id="plus">
  <path vector-effect="non-scaling-stroke" d="M3,1V5M1,3H5" />
</symbol><symbol viewBox="0 0 16 16" class="icon-reddit" id="reddit">
<path d="M9.4,10.213c-0.005,0.004-0.435,0.406-1.417,0.406c-0.965,0-1.35-0.388-1.361-0.399c-0.065-0.071-0.179-0.079-0.254-0.018
	c-0.076,0.062-0.085,0.17-0.02,0.242c0.019,0.021,0.481,0.518,1.635,0.518c1.147,0,1.655-0.49,1.677-0.511
	c0.069-0.068,0.066-0.175-0.005-0.241C9.584,10.144,9.469,10.146,9.4,10.213z M7.272,8.636c0-0.371-0.317-0.671-0.708-0.671
	c-0.391,0-0.708,0.3-0.708,0.671c0,0.371,0.317,0.671,0.708,0.671C6.955,9.307,7.272,9.007,7.272,8.636z M9.519,7.966
	c-0.391,0-0.708,0.3-0.708,0.671c0,0.37,0.317,0.671,0.708,0.671c0.391,0,0.707-0.3,0.707-0.671
	C10.226,8.266,9.91,7.966,9.519,7.966z M13,7.893c0-0.602-0.517-1.092-1.152-1.092c-0.283,0-0.549,0.097-0.759,0.273
	c-0.749-0.454-1.744-0.747-2.842-0.786l0.655-1.765l1.637,0.371c0.001,0.491,0.423,0.89,0.941,0.89c0.519,0,0.941-0.4,0.941-0.892
	C12.42,4.4,11.998,4,11.479,4c-0.394,0-0.732,0.231-0.871,0.557L8.669,4.118L7.864,6.285C6.72,6.305,5.681,6.6,4.904,7.068
	C4.695,6.896,4.431,6.801,4.152,6.801C3.517,6.801,3,7.291,3,7.893C3,8.266,3.203,8.609,3.53,8.81
	C3.51,8.919,3.499,9.029,3.499,9.141C3.499,10.717,5.514,12,7.992,12s4.493-1.283,4.493-2.859c0-0.109-0.011-0.217-0.029-0.323
	C12.791,8.62,13,8.271,13,7.893z M11.479,4.342c0.32,0,0.579,0.246,0.579,0.549c0,0.303-0.259,0.549-0.579,0.549
	c-0.32,0-0.579-0.246-0.579-0.549C10.9,4.588,11.16,4.342,11.479,4.342z M3.361,7.893c0-0.413,0.355-0.749,0.79-0.749
	c0.161,0,0.313,0.046,0.443,0.129c-0.455,0.335-0.791,0.738-0.965,1.18C3.461,8.313,3.361,8.11,3.361,7.893z M7.991,11.657
	c-2.278,0-4.132-1.129-4.132-2.516c0-1.387,1.853-2.516,4.132-2.516c2.278,0,4.132,1.129,4.132,2.516
	C12.123,10.529,10.269,11.657,7.991,11.657z M12.356,8.465c-0.171-0.445-0.505-0.849-0.96-1.185
	c0.132-0.088,0.288-0.135,0.452-0.135c0.436,0,0.79,0.335,0.79,0.749C12.638,8.117,12.532,8.324,12.356,8.465z" />
</symbol><symbol viewBox="0 0 22 22" id="restart">
  <path vector-effect="non-scaling-stroke" d="M15.5475925,11.7997215 C14.2086373,14.8374617 10.9014091,16.5288359 7.62463006,15.8516625 C4.347851,15.1744892 2,12.3144464 2,9 C2,5.68555363 4.347851,2.82551082 7.62463006,2.14833746 C10.9014091,1.47116411 14.2086373,3.16253826 15.5475925,6.20027854 M12.465566,6.20027854 L16,6.20027854 L16,2.70062671" />
</symbol><symbol viewBox="0 0 16 16" id="running">
  <path vector-effect="non-scaling-stroke" d="M15 8C15 4.13401 11.866 1 8 1" />
</symbol><symbol viewBox="0 0 22 22" id="settings-gear">
  <path d="M13,11a2,2,0,0,0-1-1.71V6a1,1,0,0,0-2,0v3.3A2,2,0,0,0,9,11L6.16,12.63a1,1,0,0,0,.5,1.87,1,1,0,0,0,.5-.14L10,12.72a1.93,1.93,0,0,0,2,0l2.84,1.64A1,1,0,0,0,16.21,14a1,1,0,0,0-.37-1.37Zm-2,1a1,1,0,1,1,1-1A1,1,0,0,1,11,12Zm10,0a1,1,0,0,0,0-2H19.94a9.49,9.49,0,0,0-.3-1.5l1-.4a1,1,0,0,0,.54-1.31,1,1,0,0,0-1.3-.54l-1,.41A10,10,0,0,0,18,5.39l.75-.75a1,1,0,1,0-1.42-1.42L16.61,4a9.67,9.67,0,0,0-1.26-.86l.4-1a1,1,0,0,0-.54-1.3,1,1,0,0,0-1.31.54l-.4,1a9.49,9.49,0,0,0-1.5-.3V1a1,1,0,0,0-2,0V2.06a9.49,9.49,0,0,0-1.5.3l-.4-1a1,1,0,0,0-1.85.76l.41,1A9.13,9.13,0,0,0,5.39,4l-.75-.76A1,1,0,0,0,3.22,4.64L4,5.39a9.13,9.13,0,0,0-.86,1.27l-1-.41a1,1,0,0,0-1.3.54A1,1,0,0,0,1.38,8.1l1,.4a9.49,9.49,0,0,0-.3,1.5H1a1,1,0,0,0,0,2H2.06a9.49,9.49,0,0,0,.3,1.5l-1,.4a1,1,0,0,0,.38,1.93,1,1,0,0,0,.38-.08l1-.4A9.67,9.67,0,0,0,4,16.61l-.76.75a1,1,0,0,0,0,1.42,1,1,0,0,0,.71.29,1,1,0,0,0,.71-.29L5.39,18a10,10,0,0,0,1.27.85l-.41,1a1,1,0,0,0,.54,1.3,1.08,1.08,0,0,0,.38.08,1,1,0,0,0,.93-.62l.4-1a9.49,9.49,0,0,0,1.5.3V21a1,1,0,0,0,2,0V19.94a9.49,9.49,0,0,0,1.5-.3l.4,1a1,1,0,0,0,.93.62,1,1,0,0,0,.38-.08,1,1,0,0,0,.54-1.3l-.4-1A10.69,10.69,0,0,0,16.61,18l.75.75a1,1,0,0,0,.71.29,1,1,0,0,0,.71-.29,1,1,0,0,0,0-1.42L18,16.61a10.69,10.69,0,0,0,.85-1.26l1,.4a1,1,0,0,0,.38.08,1,1,0,0,0,.38-1.93l-1-.4a9.49,9.49,0,0,0,.3-1.5ZM11,18a7,7,0,1,1,7-7A7,7,0,0,1,11,18Z" />
</symbol><symbol viewBox="0 0 6 6" id="skipped">
  <polyline vector-effect="non-scaling-stroke" points="2 1 4 3 2 5" />
</symbol><symbol class="icon-slack" viewBox="0 0 16 16" id="slack">
  <path d="M6.59,7.34l2.13-.71.69,2.06L7.28,9.4Zm0,0,2.13-.71.69,2.06L7.28,9.4ZM15.33,5.8C13.68.3,11.3-1,5.8.67S-1,4.7.67,10.2s4,6.78,9.53,5.13S17,11.3,15.33,5.8ZM12.55,9.37l-1,.35.36,1.07a.83.83,0,0,1-.52,1,.71.71,0,0,1-.28,0,.85.85,0,0,1-.77-.56l-.36-1.07L7.81,11,8.17,12a.83.83,0,0,1-.52,1,.71.71,0,0,1-.28,0,.85.85,0,0,1-.77-.56l-.36-1.07-1,.35a.71.71,0,0,1-.28,0,.85.85,0,0,1-.77-.56.83.83,0,0,1,.52-1l1-.35L5,7.85,4,8.19a.71.71,0,0,1-.28,0,.85.85,0,0,1-.77-.56.83.83,0,0,1,.52-1l1-.35L4.14,5.2a.83.83,0,1,1,1.57-.52l.36,1.07L8.2,5,7.85,4a.83.83,0,0,1,1.57-.52l.36,1.07,1-.35a.83.83,0,1,1,.52,1.57l-1,.35L11,8.14l1-.35a.83.83,0,0,1,.52,1.57Z" />
</symbol><symbol viewBox="0 0 16 16" id="slack-color">
  <path fill="#ecb32d" d="M10.37,1a1.43,1.43,0,0,0-2.72.88l3.69,11.34a1.42,1.42,0,0,0,1.73.88,1.4,1.4,0,0,0,1-1.76S10.37,1,10.37,1Z" />
  <path fill="#63c1a0" d="M4.66,2.84a1.43,1.43,0,0,0-2.72.88L5.63,15.06a1.42,1.42,0,0,0,1.73.88,1.4,1.4,0,0,0,1-1.76S4.66,2.84,4.66,2.84Z" />
  <path fill="#e01a59" d="M15,10.37a1.43,1.43,0,0,0-.88-2.72L2.79,11.36a1.42,1.42,0,0,0-.88,1.73,1.4,1.4,0,0,0,1.76,1Z" />
  <path fill="#331433" d="M5.15,13.59l2.72-.88L7,10l-2.72.88Z" />
  <path fill="#d62027" d="M10.87,11.73l2.72-.88-.88-2.72L10,9Z" />
  <path fill="#89d3df" d="M13.15,4.67a1.43,1.43,0,0,0-.88-2.72L.94,5.64A1.42,1.42,0,0,0,.06,7.37a1.4,1.4,0,0,0,1.76,1Z" />
  <path fill="#258b74" d="M3.3,7.87,6,7,5.13,4.27l-2.72.88Z" />
  <path fill="#819c3c" d="M9,6l2.72-.88-.88-2.72L8.13,3.3Z" />
</symbol><symbol class="icon-stride-color" viewBox="0 0 16 16" id="stride-color">
    <path fill="#306099" d="M4.58,2V4.52c0,3.53-1.77,4.89-4,5.1a.46.46,0,0,0-.41.46v4.17a.45.45,0,0,0,.46.46h0a9.11,9.11,0,0,0,9-9.5h0V2Z" transform="translate(-0.15 -1.97)" />
    <path fill="#4b7bbe" d="M15.88,14,9.92,2H4.58l6.3,12.35a.71.71,0,0,0,.62.38h4a.46.46,0,0,0,.46-.47A.46.46,0,0,0,15.88,14Z" transform="translate(-0.15 -1.97)" />
</symbol><symbol viewBox="0 0 6 6" id="success">
  <polyline vector-effect="non-scaling-stroke" points="1 3.5 2.5 5 5 1" />
</symbol><symbol viewBox="0 0 14 14" id="tag">
  <path d="M13.41,5.59l-5-5A2,2,0,0,0,7,0H2A2,2,0,0,0,0,2V7A2,2,0,0,0,.59,8.41l5,5a2,2,0,0,0,2.83,0l5-5A2,2,0,0,0,13.41,5.59ZM4,6A2,2,0,1,1,6,4,2,2,0,0,1,4,6Z" />
</symbol><symbol viewBox="0 0 24 24" class="icon-twitter" id="twitter">
	<path d="M19,8.3c-0.5,0.2-1,0.4-1.5,0.4c0.6-0.3,1-0.9,1.2-1.5c-0.5,0.3-1.1,0.5-1.7,0.7C16.5,7.3,15.8,7,15,7
		c-1.5,0-2.7,1.2-2.7,2.8c0,0.2,0,0.4,0.1,0.6c-2.2-0.1-4.2-1.2-5.5-2.9C6.7,7.9,6.5,8.4,6.5,8.9c0,1,0.4,1.8,1.2,2.3
		c-0.4,0-1.2-0.1-1.2-0.3c0,0,0,0,0,0c0,1.3,0.9,2.5,2.2,2.7c-0.2,0.1-0.4,0.1-0.7,0.1c-0.2,0-0.3,0-0.5-0.1c0.3,1.1,1.3,1.9,2.5,1.9
		c-0.9,0.7-2.1,1.2-3.3,1.2c-0.2,0-0.4,0-0.6,0c1.2,0.8,2.6,1.2,4.1,1.2c4.9,0,7.6-4.2,7.6-7.9c0-0.1,0-0.2,0-0.4
		C18.2,9.4,18.6,8.9,19,8.3z" />
</symbol><symbol class="icon-vimeo" viewBox="0 0 24 24" id="vimeo">
  <path d="M20,8.24q-.11,2.36-3.26,6.47Q13.47,19,11.21,19q-1.4,0-2.37-2.61L7.55,11.6Q6.83,9,6,9a4.94,4.94,0,0,0-1.26.76L4,8.77Q5.18,7.71,6.34,6.66A5.28,5.28,0,0,1,8.71,5.21Q10.57,5,11,7.79q.47,3,.65,3.71Q12.19,14,12.84,14t1.51-1.61a6.36,6.36,0,0,0,1.08-2.44q.14-1.39-1.08-1.39a3,3,0,0,0-1.18.27Q14.34,4.89,17.67,5,20.13,5.08,20,8.24Z" />
</symbol><symbol viewBox="0 0 16 16" class="icon icon-waiting icon-outline status-icon" id="waiting">
  <circle class="icon-waiting-dot-1" vector-effect="non-scaling-stroke" cx="3" cy="8" r="1" />
  <circle class="icon-waiting-dot-2" vector-effect="non-scaling-stroke" cx="8" cy="8" r="1" />
  <circle class="icon-waiting-dot-3" vector-effect="non-scaling-stroke" cx="13" cy="8" r="1" />
</symbol><symbol class="icon-webhook" viewBox="0 0 16 16" id="webhook">
  <path d="M7.37,12.45A3.72,3.72,0,1,1,2.52,8.18.74.74,0,1,1,3,9.59a2.23,2.23,0,1,0,3,2.11A.74.74,0,0,1,6.7,11H11a1.49,1.49,0,1,1,0,1.49ZM3.72,10.22A1.49,1.49,0,1,0,5,11L7.15,7.25h0a.74.74,0,0,0-.27-1,2.23,2.23,0,1,1,3.35-1.93s0,.08,0,.12a.74.74,0,1,0,1.49.08c0-.07,0-.13,0-.2A3.72,3.72,0,1,0,5.53,7.08L3.72,10.22ZM12.28,8a3.73,3.73,0,0,0-1.18.19L9.29,5A1.49,1.49,0,1,0,8,5.78H8L10.15,9.5h0a.74.74,0,0,0,1,.27A2.23,2.23,0,1,1,11,13.5a.74.74,0,0,0-.89,1.2A3.72,3.72,0,1,0,12.28,8Z" />
</symbol><symbol viewBox="0 0 16 16" id="webhook-color">
  <path fill="#788594" d="M7.37,12.45A3.72,3.72,0,1,1,2.52,8.18.74.74,0,0,1,3,9.59,2.23,2.23,0,1,0,6,11.7a.74.74,0,0,1,.7-.7H11a1.49,1.49,0,1,1,0,1.49ZM12.28,8a3.73,3.73,0,0,0-1.18.19L9.29,5A1.49,1.49,0,1,0,8,5.78H8L10.15,9.5h0a.74.74,0,0,0,1,.27A2.23,2.23,0,1,1,11,13.5a.75.75,0,1,0-.89,1.2A3.72,3.72,0,1,0,12.28,8Z" />
  <path fill="#f9657a" d="M3.72,10.22A1.49,1.49,0,1,0,5,11L7.15,7.25h0a.74.74,0,0,0-.27-1,2.23,2.23,0,1,1,3.35-1.93v.12a.75.75,0,1,0,1.49.08v-.2A3.72,3.72,0,1,0,5.53,7.08Z" />
</symbol><symbol viewBox="0 0 16 16" class="icon-website" id="website">
<path d="M7.901,7.151c0.001-0.001,0.001-0.002,0.002-0.003c-0.002-0.01-0.004-0.019-0.005-0.025C7.899,7.133,7.9,7.141,7.901,7.151z
	 M8,3C5.239,3,3,5.239,3,8c0,2.761,2.239,5,5,5c2.761,0,5-2.239,5-5C13,5.239,10.761,3,8,3z M11.194,4.954
	c-0.172,0.005-0.292,0.006-0.431,0.101c-0.056,0.039-0.094,0.089-0.165,0.109c-0.063,0.017-0.132,0.002-0.195,0.023
	c-0.227,0.077-0.191,0.563-0.491,0.49c-0.141-0.035-0.24-0.201-0.311-0.309C9.54,5.273,9.427,5.194,9.504,5.075
	C9.469,5.083,9.432,5.073,9.397,5.08c0.048-0.105,0.209-0.096,0.235-0.15C9.699,4.794,9.449,4.78,9.378,4.762
	c0.085-0.091,0.129,0.031,0.213,0.01C9.672,4.752,9.548,4.645,9.5,4.633C9.482,4.629,9.197,4.712,9.362,4.564
	C9.158,4.435,8.955,4.305,8.751,4.175C8.716,4.319,9.022,4.402,9.122,4.452c-0.015,0.06-0.108,0.147-0.179,0.121
	C8.876,4.55,8.903,4.438,8.802,4.45C8.73,4.617,8.954,4.569,8.975,4.671C8.999,4.788,8.89,4.738,8.848,4.736
	c-0.01-0.001-0.088-0.081-0.092-0.02C8.751,4.789,8.88,4.761,8.89,4.834C8.739,4.84,8.662,4.785,8.54,4.704
	C8.396,4.608,8.323,4.617,8.148,4.617C8.2,4.596,8.272,4.58,8.317,4.545c0.024-0.019,0.12-0.113,0.127-0.133
	c0.027-0.09-0.001-0.083-0.087-0.142C8.28,4.218,8.187,4.124,8.094,4.105C7.758,4.038,7.991,4.408,7.736,4.46
	C7.677,4.458,7.566,4.443,7.528,4.474c-0.027,0.022-0.029,0.11-0.059,0.142C7.416,4.673,7.336,4.684,7.272,4.726
	C7.21,4.766,7.073,4.868,7.036,4.938C6.902,5.196,7.34,5.275,7.506,5.35C7.581,5.384,7.8,5.431,7.841,5.488
	c0.055,0.076-0.047,0.148,0.067,0.201C7.945,5.706,8.02,5.71,8.052,5.674c0.051-0.058-0.021-0.071-0.033-0.137
	C7.996,5.409,8.034,5.46,8.099,5.412C8.23,5.316,8.201,5.31,8.153,5.155C8.132,5.083,8.049,4.883,8.122,4.83
	c0.095-0.069,0.297,0.038,0.37,0.047C8.576,4.887,8.624,5.004,8.67,5.052C8.701,5.084,8.756,5.152,8.81,5.144
	c0.085-0.011,0.049-0.086,0.099-0.12c0.133-0.092,0.167,0.033,0.22,0.157c0.049,0.117,0.097,0.16,0.185,0.235
	c0.041,0.035,0.22,0.16,0.203,0.237C9.505,5.706,9.3,5.784,9.245,5.802C9.044,5.865,8.668,5.698,8.628,6.016
	c0.077-0.029,0.299-0.21,0.365-0.124c0.03,0.039-0.024,0.095-0.011,0.134c0.038,0.115,0.126,0.076,0.219,0.057
	c0.098-0.05,0.101-0.05,0.155-0.148C9.375,5.9,9.403,5.815,9.43,5.79C9.523,5.705,9.538,5.764,9.595,5.83
	C9.61,5.847,9.752,6.052,9.702,6.042C9.536,6.008,9.377,6.013,9.24,6.104C9.16,6.156,9.086,6.226,8.991,6.261
	C8.968,6.269,8.8,6.285,8.82,6.256c0.029-0.042,0.129-0.069,0.168-0.115c-0.109-0.045-0.2,0.054-0.285,0.112
	C8.612,6.296,8.591,6.377,8.514,6.447C8.48,6.478,8.416,6.483,8.383,6.523C8.351,6.562,8.347,6.624,8.316,6.661
	C8.295,6.687,8.24,6.671,8.218,6.71C8.189,6.761,8.244,6.809,8.232,6.846C8.21,6.912,8.083,6.97,8.034,7.018
	c-0.045,0.043-0.097,0.078-0.131,0.13C7.92,7.232,7.976,7.433,7.96,7.479C7.909,7.631,7.81,7.397,7.77,7.336
	C7.632,7.128,7.355,7.267,7.167,7.285C6.925,7.307,6.688,7.62,6.837,7.875c0.072,0.122,0.192,0.169,0.33,0.141
	c0.123-0.025,0.16-0.197,0.275-0.2c0.212-0.006,0.005,0.208-0.014,0.287C7.412,8.175,7.455,8.181,7.53,8.199
	c0.055,0.013,0.133-0.023,0.181,0.008c0.03,0.02,0.029,0.129,0.07,0.095C7.7,8.37,7.719,8.531,7.803,8.589
	c0.093,0.064,0.202,0.005,0.299,0.029c0.184,0.047,0.096-0.014,0.257-0.111c0.109-0.065,0.127,0.013,0.201,0.013
	C8.611,8.52,8.643,8.447,8.728,8.468c0.069,0.017,0.096,0.071,0.179,0.083C8.94,8.555,8.975,8.538,9.007,8.541
	C9.16,8.559,9.277,8.656,9.397,8.744c0.099,0.072,0.165,0.057,0.28,0.091c0.084,0.024,0.24,0.146,0.232,0.253
	C9.907,9.107,9.833,9.204,9.821,9.247c0.022,0.015,0.172-0.019,0.216-0.022C10.023,9.242,9.92,9.314,9.92,9.276
	c0,0.019,0.073,0.059,0.09,0.072c0.053-0.173,0.141-0.061,0.247-0.019c0.09,0.037,0.2,0.039,0.296,0.061
	c0.081,0.019,0.261,0.074,0.321,0.141c0.073,0.08,0.022,0.21-0.031,0.289c-0.07,0.104-0.175,0.144-0.219,0.267
	c-0.035,0.097-0.008,0.195-0.029,0.303c-0.027,0.146-0.048,0.095-0.142,0.184c-0.079,0.075-0.001,0.061-0.109,0.109
	c-0.108,0.048-0.203,0.033-0.278,0.152c0.003-0.007,0.005-0.015,0.007-0.023c-0.031,0.045-0.047,0.135-0.062,0.165
	c-0.038,0.076-0.09,0.123-0.149,0.187c-0.023,0.024-0.233,0.311-0.245,0.288c-0.016-0.03-0.181,0.03-0.189-0.013
	c0.007,0.036-0.002,0.024,0.039,0.045c-0.039,0.236-0.138,0.271-0.37,0.273c0.02,0.114-0.084,0.091-0.132,0.152
	c-0.028,0.036-0.042,0.136-0.061,0.182C8.891,12.121,8.8,12.237,8.8,12.26c0,0.021,0.031,0.052,0.059,0.082
	c-0.163,0.033-0.33,0.055-0.499,0.069c0.032-0.04,0.039-0.075-0.061-0.08c0.027-0.073,0.091-0.115,0.117-0.186
	c0.013-0.033,0.002-0.047,0.013-0.08c0.037-0.115,0.021-0.071,0-0.161c-0.049-0.209,0.017-0.265,0.074-0.457
	c0.059-0.197,0.053-0.451,0.091-0.663c0.018-0.101,0.047-0.311,0.012-0.407c-0.04-0.108-0.214-0.193-0.294-0.265
	c-0.113-0.103-0.173-0.214-0.257-0.341C8.012,9.707,7.964,9.643,7.93,9.573c-0.071-0.15,0-0.061,0.012-0.149
	c0.011-0.085-0.01-0.162,0.024-0.252c0.038-0.1,0.132-0.162,0.163-0.262C8.156,8.82,8.135,8.708,8.044,8.678
	C7.993,8.661,7.936,8.7,7.885,8.691C7.813,8.679,7.732,8.626,7.676,8.583C7.598,8.524,7.568,8.427,7.485,8.37
	c-0.07-0.047-0.12-0.019-0.195-0.041C7.212,8.306,7.164,8.209,7.101,8.179c-0.095-0.045-0.147,0.02-0.247,0.007
	C6.769,8.175,6.64,8.081,6.56,8.045C6.4,7.973,6.302,7.893,6.237,7.73c-0.055-0.141-0.135-0.206-0.23-0.323
	C5.911,7.289,5.881,7.188,5.733,7.156C5.716,7.153,5.77,7.281,5.775,7.291c0.053,0.097,0.132,0.187,0.196,0.278
	C6.065,7.703,6.025,7.728,5.93,7.599C5.82,7.45,5.693,7.303,5.599,7.145C5.563,7.086,5.57,7.048,5.511,6.991
	C5.454,6.937,5.379,6.911,5.322,6.859C5.115,6.673,5.077,6.425,5.101,6.159C5.109,6.073,5.14,6.004,5.126,5.921
	C5.115,5.852,5.074,5.795,5.023,5.744c-0.017-0.026-0.057-0.091-0.06-0.095C4.917,5.571,4.88,5.494,4.805,5.43
	C4.763,5.394,4.651,5.307,4.548,5.235C5.016,4.651,5.629,4.188,6.332,3.9c0.005,0.035,0.021,0.071,0.043,0.105
	c0.058,0.086,0.113,0.079,0.226,0.103C6.589,4.239,6.436,4.24,6.333,4.226C6.209,4.209,6.079,4.168,5.971,4.276
	c0.059,0.035,0.221,0.174,0.2,0.029C6.289,4.3,6.404,4.297,6.52,4.311c0.046,0.005,0.202,0.058,0.244,0.034
	c0.018-0.01,0.037-0.097,0.055-0.124c-0.033,0-0.069-0.017-0.101-0.013c0.077-0.098,0.153-0.021,0.251,0.024
	C6.861,4.297,6.925,4.453,7.03,4.326c0.087-0.105-0.021-0.181-0.131-0.241C7.01,3.946,7.078,3.934,7.182,4.09
	c0.017-0.096,0.095-0.058,0.176-0.051V4.015c-0.036,0.001-0.074-0.02-0.109-0.016c0.083-0.132,0.03-0.162,0.148-0.205
	C7.491,3.76,7.759,3.792,7.793,3.703C7.604,3.74,7.377,3.748,7.207,3.834C7.134,3.87,7.047,3.987,6.974,3.911
	C6.899,3.833,7.027,3.708,7.093,3.67H7.077c0.297-0.063,0.606-0.097,0.922-0.097c0.204,0,0.405,0.015,0.602,0.042
	c-0.068,0.036-0.017,0.06-0.067,0.097C8.439,3.781,8.271,3.84,8.158,3.884c0.144,0,0.491,0.135,0.558-0.067
	C8.67,3.81,8.623,3.803,8.577,3.796c0.087-0.057,0.183-0.104,0.285-0.137c0.914,0.181,1.727,0.645,2.345,1.295H11.194z M7.749,4.461
	H7.734c0,0,0.001-0.001,0.002-0.001C7.74,4.461,7.745,4.461,7.749,4.461z M12.003,6.708c0.008-0.017,0.027-0.023,0.035-0.038
	c0.017-0.031,0.013-0.051,0.033-0.077c0.022-0.028,0.051-0.035,0.076-0.057c0.01-0.009,0.015-0.017,0.02-0.025
	c0.074,0.206,0.133,0.419,0.175,0.637c-0.001,0.001-0.002,0.004-0.003,0.005c-0.011,0.009-0.081,0.019-0.095,0.019
	c-0.051,0.002-0.088-0.031-0.125-0.063c-0.037-0.032-0.081-0.075-0.107-0.117c-0.028-0.045-0.011-0.09-0.009-0.142
	C12.006,6.807,11.985,6.747,12.003,6.708z M12.06,9.001c-0.085-0.075-0.187-0.175-0.248-0.271c-0.065-0.103-0.025-0.209-0.021-0.327
	c0.004-0.099-0.044-0.241-0.002-0.33c0.019-0.041,0.064-0.055,0.082-0.088c0.039-0.071,0.03-0.119,0.078-0.179
	c0.051-0.065,0.12-0.081,0.177-0.133c0.06-0.054,0.058-0.097,0.096-0.165c0.027-0.05,0.093-0.134,0.154-0.178
	c0.033,0.219,0.051,0.442,0.051,0.67c0,0.394-0.052,0.776-0.149,1.14C12.194,9.119,12.126,9.059,12.06,9.001z" />
</symbol><symbol class="icon-x" viewBox="0 0 8 8" id="x">
  <path vector-effect="non-scaling-stroke" d="M1,1 L4,4 M4,4 L7,1 M4,4 L7,7 M4,4 L1,7" />
</symbol><symbol viewBox="0 0 24 24" class="icon-youtube" id="youtube">
	<path d="M19.9,15.3c-0.1,1.2-1.2,2.3-2.4,2.4C15.6,17.9,13.8,18,12,18s-3.6-0.1-5.5-0.2c-1.2-0.1-2.3-1.2-2.4-2.4
		C4,13.1,4,10.9,4.1,8.7c0.1-1.2,1.2-2.3,2.4-2.4C8.4,6.1,10.2,6,12,6s3.6,0.1,5.5,0.2c1.2,0.1,2.3,1.2,2.4,2.4
		C20,10.9,20,13.1,19.9,15.3z M14.7,11.7L9.9,9.1C9.7,9,9.5,9,9.3,9C9.1,9.1,9,9.3,9,9.4v5.2c0,0.2,0.1,0.3,0.3,0.4
		c0.1,0,0.2,0,0.3,0c0.1,0,0.2,0,0.3-0.1l4.8-2.6c0.2-0.1,0.2-0.2,0.2-0.3C15,11.9,14.9,11.7,14.7,11.7z" />
</symbol></defs></svg>