<svg viewBox="0 0 16 16" class="icon-reddit">
<path d="M9.4,10.213c-0.005,0.004-0.435,0.406-1.417,0.406c-0.965,0-1.35-0.388-1.361-0.399c-0.065-0.071-0.179-0.079-0.254-0.018
	c-0.076,0.062-0.085,0.17-0.02,0.242c0.019,0.021,0.481,0.518,1.635,0.518c1.147,0,1.655-0.49,1.677-0.511
	c0.069-0.068,0.066-0.175-0.005-0.241C9.584,10.144,9.469,10.146,9.4,10.213z M7.272,8.636c0-0.371-0.317-0.671-0.708-0.671
	c-0.391,0-0.708,0.3-0.708,0.671c0,0.371,0.317,0.671,0.708,0.671C6.955,9.307,7.272,9.007,7.272,8.636z M9.519,7.966
	c-0.391,0-0.708,0.3-0.708,0.671c0,0.37,0.317,0.671,0.708,0.671c0.391,0,0.707-0.3,0.707-0.671
	C10.226,8.266,9.91,7.966,9.519,7.966z M13,7.893c0-0.602-0.517-1.092-1.152-1.092c-0.283,0-0.549,0.097-0.759,0.273
	c-0.749-0.454-1.744-0.747-2.842-0.786l0.655-1.765l1.637,0.371c0.001,0.491,0.423,0.89,0.941,0.89c0.519,0,0.941-0.4,0.941-0.892
	C12.42,4.4,11.998,4,11.479,4c-0.394,0-0.732,0.231-0.871,0.557L8.669,4.118L7.864,6.285C6.72,6.305,5.681,6.6,4.904,7.068
	C4.695,6.896,4.431,6.801,4.152,6.801C3.517,6.801,3,7.291,3,7.893C3,8.266,3.203,8.609,3.53,8.81
	C3.51,8.919,3.499,9.029,3.499,9.141C3.499,10.717,5.514,12,7.992,12s4.493-1.283,4.493-2.859c0-0.109-0.011-0.217-0.029-0.323
	C12.791,8.62,13,8.271,13,7.893z M11.479,4.342c0.32,0,0.579,0.246,0.579,0.549c0,0.303-0.259,0.549-0.579,0.549
	c-0.32,0-0.579-0.246-0.579-0.549C10.9,4.588,11.16,4.342,11.479,4.342z M3.361,7.893c0-0.413,0.355-0.749,0.79-0.749
	c0.161,0,0.313,0.046,0.443,0.129c-0.455,0.335-0.791,0.738-0.965,1.18C3.461,8.313,3.361,8.11,3.361,7.893z M7.991,11.657
	c-2.278,0-4.132-1.129-4.132-2.516c0-1.387,1.853-2.516,4.132-2.516c2.278,0,4.132,1.129,4.132,2.516
	C12.123,10.529,10.269,11.657,7.991,11.657z M12.356,8.465c-0.171-0.445-0.505-0.849-0.96-1.185
	c0.132-0.088,0.288-0.135,0.452-0.135c0.436,0,0.79,0.335,0.79,0.749C12.638,8.117,12.532,8.324,12.356,8.465z"/>
</svg>
